<svg width="22" height="22" viewBox="0 0 22 22" fill="none" xmlns="http://www.w3.org/2000/svg">
<path d="M6.77348 11H3.98895C2.89503 11 2 10.1 2 9V4C2 2.9 2.89503 2 3.98895 2H6.77348C7.8674 2 8.76243 2.9 8.76243 4V9C8.76243 10.1 7.8674 11 6.77348 11Z" stroke="#31BEA9" stroke-width="3" stroke-miterlimit="10" stroke-linecap="round" stroke-linejoin="round"/>
<path d="M6.77348 20H3.98895C2.89503 20 2 19.1 2 18V17.5C2 16.4 2.89503 15.5 3.98895 15.5H6.77348C7.8674 15.5 8.76243 16.4 8.76243 17.5V18C8.76243 19.1 7.8674 20 6.77348 20Z" stroke="#31BEA9" stroke-width="3" stroke-miterlimit="10" stroke-linecap="round" stroke-linejoin="round"/>
<path d="M15.2265 11H18.011C19.1049 11 20 11.9 20 13V18C20 19.1 19.1049 20 18.011 20H15.2265C14.1326 20 13.2375 19.1 13.2375 18V13C13.2375 11.9 14.1326 11 15.2265 11Z" stroke="#31BEA9" stroke-width="3" stroke-miterlimit="10" stroke-linecap="round" stroke-linejoin="round"/>
<path d="M15.2265 2H18.011C19.1049 2 20 2.9 20 4V4.5C20 5.6 19.1049 6.5 18.011 6.5H15.2265C14.1326 6.5 13.2375 5.6 13.2375 4.5V4C13.2375 2.9 14.1326 2 15.2265 2Z" stroke="#31BEA9" stroke-width="3" stroke-miterlimit="10" stroke-linecap="round" stroke-linejoin="round"/>
</svg>
