<svg width="16" height="20" viewBox="0 0 16 20" fill="none" xmlns="http://www.w3.org/2000/svg">
<path d="M14.3005 0H12.5786V5.82736C12.5786 6.23678 12.1647 6.43921 11.844 5.92517L10.7067 4.10554L9.56942 5.92517C9.24643 6.43694 8.83474 6.23678 8.83474 5.82736V0H3.06197C1.66648 0.00375299 0.537231 1.13607 0.537231 2.53156V17.4753C0.540984 18.8681 1.66915 19.9962 3.06197 20H14.3027C14.6101 19.9995 14.9047 19.8768 15.1216 19.6588C15.3395 19.442 15.4622 19.1474 15.4627 18.84V1.16229C15.4615 0.520869 14.9419 0.001251 14.3005 0ZM14.5165 16.9976L3.54872 17.0113C3.30966 17.0277 3.11946 17.218 3.10297 17.457C3.08471 17.7214 3.2843 17.9506 3.54872 17.9688H14.5165L14.5143 18.8514C14.5144 18.904 14.494 18.9546 14.4574 18.9924C14.4196 19.0289 14.369 19.0494 14.3164 19.0492H3.06197C2.19833 19.0492 1.49822 18.3491 1.49822 17.4855C1.49822 16.6219 2.19833 15.9218 3.06197 15.9218H14.3164C14.4264 15.923 14.5153 16.0119 14.5165 16.1219V16.9976Z" fill="#A6CE3A"/>
</svg>
