<svg width="18" height="20" viewBox="0 0 18 20" fill="none" xmlns="http://www.w3.org/2000/svg">
<path d="M16.4819 18.7097H15.2097V2.90323C15.2097 2.5469 14.9209 2.25806 14.5645 2.25806H9.72583V0.645161C9.72583 0.288831 9.43699 0 9.08066 0H4.60486C4.24852 0 3.95969 0.288831 3.95969 0.645161V2.25806H3.4355C3.07917 2.25806 2.79034 2.5469 2.79034 2.90323V18.7097H1.51812C1.17062 18.7097 0.871748 18.9769 0.855579 19.324C0.838321 19.6945 1.13332 20 1.50001 20H6.09679C6.27494 20 6.41937 19.8556 6.41937 19.6774V15.9677H6.15534C5.80796 15.9677 5.50905 15.7008 5.49268 15.3538C5.47522 14.9833 5.77046 14.6774 6.13711 14.6774C6.33191 14.6774 12.0059 14.6774 11.8447 14.6774C12.1921 14.6774 12.491 14.9444 12.5074 15.2914C12.5248 15.6619 12.2296 15.9677 11.8629 15.9677H11.5807V19.6774C11.5807 19.8556 11.7251 20 11.9032 20H16.5C16.8667 20 17.1617 19.6945 17.1445 19.324C17.1283 18.9769 16.8294 18.7097 16.4819 18.7097ZM7.42744 13.3468H6.70163C6.34534 13.3468 6.05647 13.0579 6.05647 12.7016C6.05647 12.3453 6.34534 12.0565 6.70163 12.0565H7.42744C7.78373 12.0565 8.0726 12.3453 8.0726 12.7016C8.0726 13.0579 7.78373 13.3468 7.42744 13.3468ZM7.42744 10.9274H6.70163C6.34534 10.9274 6.05647 10.6385 6.05647 10.2823C6.05647 9.92597 6.34534 9.6371 6.70163 9.6371H7.42744C7.78373 9.6371 8.0726 9.92597 8.0726 10.2823C8.0726 10.6385 7.78373 10.9274 7.42744 10.9274ZM7.42744 8.50806H6.70163C6.34534 8.50806 6.05647 8.21919 6.05647 7.8629C6.05647 7.50661 6.34534 7.21774 6.70163 7.21774H7.42744C7.78373 7.21774 8.0726 7.50661 8.0726 7.8629C8.0726 8.21919 7.78373 8.50806 7.42744 8.50806ZM7.42744 6.08871H6.70163C6.34534 6.08871 6.05647 5.79984 6.05647 5.44355C6.05647 5.08726 6.34534 4.79839 6.70163 4.79839H7.42744C7.78373 4.79839 8.0726 5.08726 8.0726 5.44355C8.0726 5.79984 7.78373 6.08871 7.42744 6.08871ZM11.2581 13.3468H10.5323C10.1759 13.3468 9.88712 13.0579 9.88712 12.7016C9.88712 12.3453 10.1759 12.0565 10.5323 12.0565H11.2581C11.6144 12.0565 11.9032 12.3453 11.9032 12.7016C11.9032 13.0579 11.6144 13.3468 11.2581 13.3468ZM11.2581 10.9274H10.5323C10.1759 10.9274 9.88712 10.6385 9.88712 10.2823C9.88712 9.92597 10.1759 9.6371 10.5323 9.6371H11.2581C11.6144 9.6371 11.9032 9.92597 11.9032 10.2823C11.9032 10.6385 11.6144 10.9274 11.2581 10.9274ZM11.2581 8.50806H10.5323C10.1759 8.50806 9.88712 8.21919 9.88712 7.8629C9.88712 7.50661 10.1759 7.21774 10.5323 7.21774H11.2581C11.6144 7.21774 11.9032 7.50661 11.9032 7.8629C11.9032 8.21919 11.6144 8.50806 11.2581 8.50806ZM11.2581 6.08871H10.5323C10.1759 6.08871 9.88712 5.79984 9.88712 5.44355C9.88712 5.08726 10.1759 4.79839 10.5323 4.79839H11.2581C11.6144 4.79839 11.9032 5.08726 11.9032 5.44355C11.9032 5.79984 11.6144 6.08871 11.2581 6.08871ZM7.7097 19.6774V16.2903C7.7097 16.1122 7.85413 15.9677 8.03228 15.9677H9.96776C10.1459 15.9677 10.2903 16.1122 10.2903 16.2903V19.6774C10.2903 19.8556 10.1459 20 9.96776 20H8.03228C7.85413 20 7.7097 19.8556 7.7097 19.6774Z" fill="#A6CE3A"/>
</svg>
