<svg width="32" height="32" viewBox="0 0 32 32" fill="none" xmlns="http://www.w3.org/2000/svg">
<path d="M22.2222 26.3158H25.3333" stroke="#31BEA9" stroke-width="3" stroke-linecap="round" stroke-linejoin="round"/>
<path d="M26.8889 30H20.6667C18.9555 30 17.5555 28.6736 17.5555 27.0526V16.7368C17.5555 15.1157 18.9555 13.7894 20.6667 13.7894H26.8889C28.6 13.7894 30 15.1157 30 16.7368V27.0526C30 28.821 28.6 30 26.8889 30Z" stroke="#31BEA9" stroke-width="3" stroke-linecap="round" stroke-linejoin="round"/>
<path d="M13.2 7.01049H4.79998C3.24443 7.01049 2 5.83154 2 4.35786V3.47365C2 2.73681 2.62226 2.14734 3.40004 2.14734H14.6C15.3777 2.14734 16 2.73681 16 3.47365V4.50523C16 5.83154 14.7556 7.01049 13.2 7.01049Z" stroke="#31BEA9" stroke-width="3" stroke-linecap="round" stroke-linejoin="round"/>
<path d="M4.17792 7.01044C3.40015 8.77886 3.86674 10.842 5.26674 12.1683C7.28896 14.0841 10.5556 14.0841 12.5779 12.1683C14.1334 10.6947 14.4446 8.63149 13.6668 7.01044" stroke="#31BEA9" stroke-width="3" stroke-linecap="round" stroke-linejoin="round"/>
<path d="M11.3333 28.5263H4.64446C3.24446 28.5263 2 27.3473 2 26.021V19.6842" stroke="#31BEA9" stroke-width="3" stroke-linecap="round" stroke-linejoin="round"/>
<path d="M22.2222 2H27.3555C28.7555 2 29.9999 3.17895 29.9999 4.50526V9.36841" stroke="#31BEA9" stroke-width="3" stroke-linecap="round" stroke-linejoin="round"/>
</svg>
