<svg width="20" height="20" viewBox="0 0 20 20" fill="none" xmlns="http://www.w3.org/2000/svg">
<g clip-path="url(#clip0)">
<path d="M7.70479 12.8761L7.39793 14.6986C7.3561 14.9478 7.45834 15.1989 7.66232 15.3476C7.86663 15.496 8.13791 15.5159 8.36113 15.3989L9.99974 14.5435L11.6383 15.3991C11.7353 15.4494 11.8415 15.4747 11.9466 15.4747C12.0843 15.4747 12.2216 15.4316 12.3375 15.3478C12.5416 15.1991 12.6442 14.948 12.602 14.6988L12.2955 12.8762L13.6149 11.582C13.7953 11.4052 13.8596 11.1415 13.7822 10.9014C13.7045 10.6616 13.4965 10.4859 13.2468 10.4491L11.4185 10.178L10.595 8.52284C10.4833 8.2969 10.252 8.15381 9.99958 8.15381C9.74768 8.15381 9.51645 8.2969 9.40381 8.52284L8.58114 10.178L6.7528 10.4489C6.50267 10.4858 6.29564 10.6614 6.21776 10.9013C6.13989 11.1413 6.20398 11.4054 6.38473 11.5818L7.70479 12.8761Z" fill="#A6CE3A"/>
<path d="M17.8576 2.12622H15.7641V0.964963C15.7641 0.432006 15.3321 0 14.7989 0H14.6459C14.113 0 13.6811 0.432006 13.6811 0.964963V2.12622H6.29454V0.964963C6.29454 0.432006 5.86253 0 5.32973 0H5.17655C4.64359 0 4.21174 0.432006 4.21174 0.964963V2.12622H2.14257C1.04765 2.12622 0.156555 3.01699 0.156555 4.11223V18.0141C0.156555 19.1087 1.04765 20.0002 2.14257 20.0002H17.8578C18.9525 20.0002 19.8438 19.1089 19.8438 18.0141V4.11223C19.8436 3.01699 18.9524 2.12622 17.8576 2.12622ZM17.5985 17.755H2.40167V6.93325H17.5985V17.755Z" fill="#A6CE3A"/>
</g>
<defs>
<clipPath id="clip0">
<rect width="20" height="20" fill="white"/>
</clipPath>
</defs>
</svg>
