<svg width="20" height="20" viewBox="0 0 20 20" fill="none" xmlns="http://www.w3.org/2000/svg">
<g clip-path="url(#clip0)">
<path d="M4.43242 12.0862L3.73625 14.6851L1.19176 14.739C0.431328 13.3285 0 11.7148 0 9.99997C0 8.34173 0.403281 6.77798 1.11812 5.40106H1.11867L3.38398 5.81637L4.37633 8.06809C4.16863 8.6736 4.05543 9.3236 4.05543 9.99997C4.05551 10.734 4.18848 11.4374 4.43242 12.0862Z" fill="#FBBB00"/>
<path d="M19.8253 8.13184C19.9402 8.73676 20.0001 9.36148 20.0001 9.99996C20.0001 10.7159 19.9248 11.4143 19.7814 12.0879C19.2946 14.3802 18.0226 16.3818 16.2605 17.7983L16.26 17.7978L13.4067 17.6522L13.0029 15.1313C14.1721 14.4456 15.0858 13.3725 15.5672 12.0879H10.2199V8.13184H15.6452H19.8253Z" fill="#518EF8"/>
<path d="M16.2599 17.7979L16.2604 17.7984C14.5467 19.1759 12.3698 20.0001 10 20.0001C6.19177 20.0001 2.8808 17.8715 1.19177 14.7391L4.43244 12.0864C5.27693 14.3402 7.45111 15.9446 10 15.9446C11.0956 15.9446 12.122 15.6484 13.0027 15.1314L16.2599 17.7979Z" fill="#28B446"/>
<path d="M16.3829 2.30219L13.1434 4.95437C12.2319 4.38461 11.1544 4.05547 9.99998 4.05547C7.39338 4.05547 5.17853 5.73348 4.37635 8.06812L1.11865 5.40109H1.1181C2.7824 2.1923 6.13513 0 9.99998 0C12.4263 0 14.6511 0.864297 16.3829 2.30219Z" fill="#F14336"/>
</g>
<defs>
<clipPath id="clip0">
<rect width="20" height="20" fill="white"/>
</clipPath>
</defs>
</svg>
