<svg width="20" height="20" viewBox="0 0 20 20" fill="none" xmlns="http://www.w3.org/2000/svg">
<g clip-path="url(#clip0)">
<path d="M7.88481 15.1303C7.88481 11.8851 10.5248 9.24514 13.7699 9.24514C14.0103 9.24514 14.246 9.26404 14.4788 9.29213V3.66451V3.6642V3.66388V3.31696H14.1009L14.1012 3.32185H3.15813C2.43202 3.32185 2.09259 2.71812 2.06285 2.09246C2.06152 2.06272 2.05702 2.0333 2.05702 2.00318C2.05702 1.34708 2.39747 0.684825 3.15819 0.684825H13.794C13.8067 0.684825 13.8167 0.678991 13.8288 0.677977C14.0007 0.659715 14.1364 0.519453 14.1364 0.342413C14.1364 0.153135 13.9833 0 13.7941 0H3.15813C2.12335 0 1.37213 0.842652 1.37213 2.00349C1.37213 2.03742 1.37479 2.0702 1.37632 2.10381V18.1546C1.37632 19.1738 2.20242 20.0001 3.22179 20.0001H10.4693C8.91104 18.9397 7.88481 17.1531 7.88481 15.1303Z" fill="#A6CE3A"/>
<path d="M14.4788 10.3302C14.2467 10.2957 14.0117 10.2723 13.7699 10.2723C11.0911 10.2723 8.91174 12.4515 8.91174 15.1303C8.91174 17.8094 11.0908 19.9886 13.7699 19.9886C14.0113 19.9886 14.2467 19.9648 14.4788 19.9308C16.8222 19.5857 18.6279 17.5679 18.6279 15.1303C18.6279 12.6933 16.8222 10.675 14.4788 10.3302ZM16.3543 17.6308C16.2377 17.7473 16.0845 17.8054 15.9313 17.8054C15.7775 17.8054 15.624 17.7466 15.5067 17.6289L14.4788 16.5966L14.1554 16.272C13.8391 16.4298 13.4836 16.5214 13.1064 16.5214C11.8083 16.5214 10.7523 15.4655 10.7523 14.1673C10.7523 12.8692 11.8083 11.8133 13.1064 11.8133C13.6187 11.8133 14.0922 11.9798 14.4788 12.2586C15.0726 12.6863 15.4605 13.3815 15.4605 14.1673C15.4605 14.6536 15.3124 15.1057 15.0593 15.4808L16.356 16.7836C16.5895 17.0179 16.5888 17.3974 16.3543 17.6308Z" fill="#A6CE3A"/>
<path d="M13.1064 13.0115C13.7447 13.0115 14.2621 13.5291 14.2621 14.1671C14.2621 14.8051 13.7448 15.3228 13.1064 15.3228C12.4684 15.3228 11.9507 14.8051 11.9507 14.1671C11.9507 13.5291 12.4684 13.0115 13.1064 13.0115Z" fill="#A6CE3A"/>
</g>
<defs>
<clipPath id="clip0">
<rect width="20" height="20" fill="white"/>
</clipPath>
</defs>
</svg>
