<svg width="20" height="20" viewBox="0 0 20 20" fill="none" xmlns="http://www.w3.org/2000/svg">
<g clip-path="url(#clip0)">
<path d="M17.9192 16.493L17.0262 5.23869C16.9707 4.51357 16.3573 3.9458 15.6302 3.9458H13.866V6.55975C13.866 6.88346 13.6039 7.14549 13.2802 7.14549C12.9569 7.14549 12.6945 6.88346 12.6945 6.55975V3.9458H7.30578V6.55975C7.30578 6.88346 7.04336 7.14549 6.72004 7.14549C6.39633 7.14549 6.1343 6.88346 6.1343 6.55975V3.9458H4.37008C3.64301 3.9458 3.02953 4.51357 2.9741 5.23713L2.08067 16.4945C2.01157 17.3962 2.32434 18.2935 2.93856 18.9565C3.55281 19.6196 4.4236 20.0003 5.32758 20.0003H14.6727C15.5767 20.0003 16.4475 19.6196 17.0618 18.9565C17.676 18.2935 17.9887 17.3961 17.9192 16.493ZM12.6391 10.7617L9.60965 13.7912C9.49523 13.9056 9.34527 13.9629 9.19535 13.9629C9.04539 13.9629 8.89547 13.9056 8.78105 13.7912L7.36125 12.3713C7.13242 12.1425 7.13242 11.7719 7.36125 11.5431C7.59008 11.3143 7.96106 11.3143 8.18949 11.5431L9.19539 12.5486L11.8109 9.93315C12.0393 9.70471 12.4103 9.70471 12.6391 9.93315C12.8679 10.162 12.8679 10.5329 12.6391 10.7617Z" fill="#A6CE3A"/>
<path d="M10.0002 0C7.86848 0 6.13434 1.73453 6.13434 3.86621V3.94547H7.30582V3.86621C7.30582 2.38039 8.51438 1.17145 10.0002 1.17145C11.486 1.17145 12.6946 2.38039 12.6946 3.86621V3.94547H13.866V3.86621C13.866 1.73453 12.1318 0 10.0002 0Z" fill="#A6CE3A"/>
</g>
<defs>
<clipPath id="clip0">
<rect width="20" height="20" fill="white"/>
</clipPath>
</defs>
</svg>
