<svg width="20" height="12" viewBox="0 0 20 12" fill="none" xmlns="http://www.w3.org/2000/svg">
<path d="M19.4231 4.26932C19.7417 4.26932 20 4.011 20 3.6924V0.615488C20 0.296855 19.7417 0.0385742 19.4231 0.0385742H6.73078V2.92318C6.73078 3.24182 6.47246 3.5001 6.15387 3.5001C5.83527 3.5001 5.57695 3.24178 5.57695 2.92318V0.0385742H0.576953C0.25832 0.0385742 0 0.296855 0 0.615488V3.6924C0 4.01104 0.25832 4.26932 0.576914 4.26932C1.53125 4.26932 2.3077 5.04572 2.3077 6.0001C2.3077 6.95447 1.53129 7.73088 0.576914 7.73088C0.25832 7.73088 0 7.98916 0 8.30779V11.3847C0 11.7033 0.25832 11.9616 0.576914 11.9616H5.57691V9.07701C5.57691 8.75838 5.83523 8.5001 6.15383 8.5001C6.47242 8.5001 6.73074 8.75842 6.73074 9.07701V11.9616H19.423C19.7417 11.9616 20 11.7033 20 11.3847V8.30779C20 7.98916 19.7416 7.73088 19.423 7.73088C18.4687 7.73088 17.6923 6.95447 17.6923 6.0001C17.6923 5.04572 18.4687 4.26932 19.4231 4.26932ZM6.73078 6.76932C6.73078 7.08795 6.47246 7.34623 6.15387 7.34623C5.83527 7.34623 5.57695 7.08791 5.57695 6.76932V5.23084C5.57695 4.91221 5.83527 4.65393 6.15387 4.65393C6.47246 4.65393 6.73078 4.91225 6.73078 5.23084V6.76932Z" fill="#A6CE3A"/>
</svg>
