<svg width="20" height="20" viewBox="0 0 20 20" fill="none" xmlns="http://www.w3.org/2000/svg">
<path d="M15.6449 12.924C14.8529 14.0119 13.5699 14.7204 12.1243 14.7204H10.096C9.3953 14.7204 8.79861 14.2755 8.57267 13.6529C8.29377 13.5697 8.02027 13.4617 7.75338 13.3291C7.18819 13.0483 6.67499 12.6678 6.22323 12.1965C3.29286 12.8403 1.09967 15.4514 1.09967 18.5752V18.9835C1.09967 19.5448 1.55469 19.9998 2.11597 19.9998H17.884C18.4453 19.9998 18.9003 19.5448 18.9003 18.9835V18.5752C18.9002 16.1621 17.5913 14.0548 15.6449 12.924Z" fill="#27310C"/>
<path d="M5.14307 10.102C5.57986 10.102 5.96005 9.8599 6.15702 9.50264C6.16219 9.51678 6.16746 9.53084 6.17277 9.54489C6.17433 9.54911 6.1759 9.55333 6.17747 9.55755C6.63954 10.7738 7.53862 11.7934 8.72417 12.2389C9.0109 11.7833 9.51792 11.4803 10.096 11.4803H12.1244C12.3267 11.4803 12.515 11.4232 12.6801 11.331C12.9573 11.1759 13.2066 10.7827 13.3354 10.5742C13.5414 10.2406 13.701 9.88727 13.8426 9.50203C13.9221 9.64648 14.0315 9.77214 14.1625 9.8706V10.368C14.1625 11.4918 13.2482 12.4062 12.1243 12.4062H10.096C9.71254 12.4062 9.40166 12.717 9.40166 13.1005C9.40166 13.484 9.71254 13.7948 10.096 13.7948H12.1243C14.0139 13.7948 15.5512 12.2575 15.5512 10.368V9.8706C15.8323 9.65945 16.0141 9.32338 16.0141 8.9448V6.85116V6.04832C16.0141 5.66196 15.8246 5.3201 15.5337 5.10991C15.308 2.2545 12.9124 0 9.99996 0C7.08751 0 4.69191 2.2545 4.46627 5.10986C4.17532 5.32006 3.98584 5.66196 3.98584 6.04828V8.94472C3.98584 9.58566 4.50652 10.102 5.14307 10.102ZM9.99996 1.3887C12.156 1.3887 13.9342 3.03632 14.1421 5.13858C14.0056 5.24592 13.8939 5.3831 13.8168 5.54052C13.1617 3.8312 11.6991 2.64112 9.99992 2.64112C8.26406 2.64112 6.82498 3.8721 6.18556 5.53369C6.18469 5.53595 6.18386 5.53826 6.18299 5.54056C6.10598 5.38315 5.9942 5.24596 5.85776 5.13862C6.06573 3.03632 7.84397 1.3887 9.99996 1.3887Z" fill="#27310C"/>
</svg>
