<svg width="20" height="20" viewBox="0 0 20 20" fill="none" xmlns="http://www.w3.org/2000/svg">
<path d="M19.7494 9.76582C20.112 9.36709 20.077 8.75595 19.6713 8.40116L10.733 0.580135C10.3273 0.225345 9.67685 0.232777 9.27968 0.59689L0.311027 8.81815C-0.08614 9.18226 -0.105633 9.79262 0.267868 10.1809L0.492725 10.415C0.865769 10.8033 1.46876 10.8496 1.83867 10.5181L2.50894 9.91785V18.7056C2.50894 19.2448 2.94581 19.6812 3.48458 19.6812H6.98059C7.51935 19.6812 7.95623 19.2448 7.95623 18.7056V12.5577H12.4154V18.7056C12.4077 19.2444 12.7932 19.6808 13.3319 19.6808H17.0368C17.5756 19.6808 18.0125 19.2444 18.0125 18.7052V10.0416C18.0125 10.0416 18.1976 10.2038 18.426 10.4045C18.654 10.6049 19.1328 10.4442 19.4954 10.0451L19.7494 9.76582Z" fill="#27310C"/>
</svg>
