<svg width="19" height="20" viewBox="0 0 19 20" fill="none" xmlns="http://www.w3.org/2000/svg">
<g clip-path="url(#clip0)">
<path d="M12.7616 1.60757L4.13961 6.25424L0.712494 4.47924L9.18253 0.0767383C9.37253 -0.0249284 9.60052 -0.0249284 9.80002 0.0767383L12.7616 1.60757Z" fill="#27310C"/>
<path d="M18.278 4.47912L9.50474 9.05412L6.21932 7.34995L5.74432 7.09579L14.3759 2.44995L14.8509 2.70328L18.278 4.47912Z" fill="#27310C"/>
<path d="M8.80176 10.3724L8.79226 19.9999L0.3895 15.384C0.152 15.2524 0 14.9882 0 14.704V5.79736L3.56092 7.64403V10.8907C3.56092 11.3065 3.88392 11.6515 4.27342 11.6515C4.66292 11.6515 4.98592 11.3065 4.98592 10.8907V8.39486L5.46092 8.6382L8.80176 10.3724Z" fill="#27310C"/>
<path d="M18.9905 5.80762L10.2268 10.3626L10.2173 19.9901L19 15.1626L18.9905 5.80762Z" fill="#27310C"/>
</g>
<defs>
<clipPath id="clip0">
<rect width="19" height="20" fill="white"/>
</clipPath>
</defs>
</svg>
