<svg width="343" height="12" viewBox="0 0 343 12" fill="none" xmlns="http://www.w3.org/2000/svg">
<path d="M98.174 8.29563L112 0H72L82 6L85.8261 8.29563C89.6262 10.5757 94.3738 10.5757 98.174 8.29563Z" fill="white"/>
<path d="M58.174 8.29563L72 0H32L42 6L45.8261 8.29563C49.6262 10.5757 54.3738 10.5757 58.174 8.29563Z" fill="white"/>
<path d="M138.174 8.29563L152 0H112L122 6L125.826 8.29563C129.626 10.5757 134.374 10.5757 138.174 8.29563Z" fill="white"/>
<path d="M178.174 8.29563L192 0H152L162 6L165.826 8.29563C169.626 10.5757 174.374 10.5757 178.174 8.29563Z" fill="white"/>
<path d="M218.174 8.29563L232 0H192L202 6L205.826 8.29563C209.626 10.5757 214.374 10.5757 218.174 8.29563Z" fill="white"/>
<path d="M258.174 8.29563L272 0H232L242 6L245.826 8.29563C249.626 10.5757 254.374 10.5757 258.174 8.29563Z" fill="white"/>
<path d="M298.174 8.29563L312 0H272L282 6L285.826 8.29563C289.626 10.5757 294.374 10.5757 298.174 8.29563Z" fill="white"/>
<path d="M343 0H303L322 6L331.462 8.70335C337.244 10.3554 343 6.0137 343 0Z" fill="white"/>
<path d="M0 0H40L21 6L11.5383 8.70335C5.75597 10.3554 0 6.0137 0 0Z" fill="white"/>
</svg>
