<svg width="20" height="20" viewBox="0 0 20 20" fill="none" xmlns="http://www.w3.org/2000/svg">
<path d="M19.2857 5.00001H15.7143V0.714299C15.7143 0.319796 15.3945 0 15 0H0.714299C0.319796 0 0 0.319796 0 0.714299V17.1428C0 18.7208 1.27918 20 2.85715 20H17.1428C18.7208 20 20 18.7208 20 17.1428V5.71427C20 5.31981 19.6802 5.00001 19.2857 5.00001ZM5.71427 3.57141H9.99998C10.3945 3.57141 10.7143 3.89121 10.7143 4.28571C10.7143 4.68021 10.3945 5.00001 9.99998 5.00001H5.71427C5.31977 5.00001 4.99997 4.68021 4.99997 4.28571C4.99997 3.89121 5.31981 3.57141 5.71427 3.57141ZM12.1428 17.1428H3.57141C3.17691 17.1428 2.85711 16.823 2.85711 16.4285C2.85711 16.034 3.17691 15.7142 3.57141 15.7142H12.1428C12.5373 15.7142 12.8571 16.034 12.8571 16.4285C12.8571 16.823 12.5373 17.1428 12.1428 17.1428ZM12.1428 14.2857H3.57141C3.17691 14.2857 2.85711 13.9659 2.85711 13.5714C2.85711 13.1769 3.17691 12.8571 3.57141 12.8571H12.1428C12.5373 12.8571 12.8571 13.1769 12.8571 13.5714C12.8571 13.9659 12.5373 14.2857 12.1428 14.2857ZM12.1428 11.4286H3.57141C3.17691 11.4286 2.85711 11.1088 2.85711 10.7143C2.85711 10.3198 3.17691 9.99998 3.57141 9.99998H12.1428C12.5373 9.99998 12.8571 10.3198 12.8571 10.7143C12.8571 11.1088 12.5373 11.4286 12.1428 11.4286ZM12.1428 8.57142H3.57141C3.17691 8.57142 2.85711 8.25163 2.85711 7.85712C2.85711 7.46262 3.17691 7.14282 3.57141 7.14282H12.1428C12.5373 7.14282 12.8571 7.46262 12.8571 7.85712C12.8571 8.25163 12.5373 8.57142 12.1428 8.57142ZM18.5714 17.1428C18.5714 17.9318 17.9318 18.5714 17.1428 18.5714C16.3539 18.5714 15.7143 17.9318 15.7143 17.1428V6.42857H18.5714V17.1428H18.5714Z" fill="#A6CE3A"/>
</svg>
