<svg width="21" height="20" viewBox="0 0 21 20" fill="none" xmlns="http://www.w3.org/2000/svg">
<path d="M10.585 11.04C9.87451 11.04 9.39763 10.5284 9.39763 9.77072V1.26931C9.39763 0.50182 9.87451 0 10.585 0C11.3052 0 11.7821 0.50182 11.7821 1.26931V9.77072C11.7821 10.5284 11.3052 11.04 10.585 11.04Z" fill="#B6B6B6"/>
<path d="M10.585 20C5.10566 20 0.589844 15.4344 0.589844 9.89468C0.589844 7.03136 1.79666 4.42386 3.68473 2.6429C4.79422 1.53102 6.49739 2.98728 5.27111 4.24675C3.80152 5.65381 2.87695 7.66109 2.87695 9.89468C2.87695 14.2143 6.31247 17.6876 10.585 17.6876C14.8575 17.6876 18.3027 14.2143 18.3027 9.89468C18.3027 7.66109 17.3782 5.64398 15.9086 4.24675C14.6823 2.98728 16.3855 1.53102 17.4852 2.6429C19.383 4.42386 20.5898 7.03136 20.5898 9.89468C20.5898 15.4344 16.0643 20 10.585 20Z" fill="#B6B6B6"/>
</svg>
