<svg width="61" height="68" viewBox="0 0 61 68" fill="none" xmlns="http://www.w3.org/2000/svg">
<path d="M25.5 1.88675C28.594 0.100424 32.406 0.100423 35.5 1.88675L55.8109 13.6132C58.9049 15.3996 60.8109 18.7008 60.8109 22.2735V45.7265C60.8109 49.2992 58.9049 52.6004 55.8109 54.3868L35.5 66.1133C32.406 67.8996 28.594 67.8996 25.5 66.1133L5.18911 54.3868C2.0951 52.6004 0.189112 49.2992 0.189112 45.7265V22.2735C0.189112 18.7008 2.0951 15.3996 5.18911 13.6132L25.5 1.88675Z" fill="#31BEA9"/>
<path d="M25.5 1.88675C28.594 0.100424 32.406 0.100423 35.5 1.88675L55.8109 13.6132C58.9049 15.3996 60.8109 18.7008 60.8109 22.2735V45.7265C60.8109 49.2992 58.9049 52.6004 55.8109 54.3868L35.5 66.1133C32.406 67.8996 28.594 67.8996 25.5 66.1133L5.18911 54.3868C2.0951 52.6004 0.189112 49.2992 0.189112 45.7265V22.2735C0.189112 18.7008 2.0951 15.3996 5.18911 13.6132L25.5 1.88675Z" fill="url(#paint0_linear)"/>
<defs>
<linearGradient id="paint0_linear" x1="-4.5" y1="34" x2="65.5" y2="34" gradientUnits="userSpaceOnUse">
<stop stop-color="#32E0C1" stop-opacity="0.979167"/>
<stop offset="1" stop-color="#59CEB2" stop-opacity="0"/>
</linearGradient>
</defs>
</svg>
