<svg width="26" height="26" viewBox="0 0 26 26" fill="none" xmlns="http://www.w3.org/2000/svg">
<path fill-rule="evenodd" clip-rule="evenodd" d="M12 0C5.383 0 0 5.383 0 12C0 18.617 5.383 24 12 24V22C6.465 22 2 17.535 2 12C2 6.465 6.465 2 12 2C17.535 2 22 6.465 22 12H24C24 5.383 18.617 0 12 0ZM12 4C7.594 4 4 7.594 4 12C4 16.406 7.594 20 12 20V18C8.676 18 6 15.324 6 12C6 8.676 8.676 6 12 6C15.324 6 18 8.676 18 12H20C20 7.594 16.406 4 12 4ZM12 8C9.801 8 8 9.801 8 12C8 14.199 9.801 16 12 16V14C10.883 14 10 13.117 10 12C10 10.883 10.883 10 12 10C13.117 10 14 10.883 14 12H16C16 9.801 14.199 8 12 8ZM17.828 14C17.297 14 16.789 14.211 16.414 14.586L14.586 16.414C14.211 16.789 14 17.297 14 17.828V25C14 25.551 14.449 26 15 26H25C25.551 26 26 25.551 26 25V15C26 14.449 25.551 14 25 14H17.828ZM18 18H22V22H18V18Z" fill="#31BEA9"/>
</svg>
