<svg width="29" height="28" viewBox="0 0 29 28" fill="none" xmlns="http://www.w3.org/2000/svg">
<path d="M3.17235 18.89L5.08203 19.1581C6.44608 19.4262 7.53733 20.6327 7.40092 21.9731L7.26451 23.8498C7.26451 24.386 7.53733 24.9222 8.08295 25.1903L9.447 25.8605C9.99262 26.1286 10.5382 25.9946 10.9475 25.5924L12.3115 24.2519C13.4028 23.3136 14.9032 23.3136 15.9945 24.2519L17.3585 25.5924C17.7677 25.9946 18.3134 25.9946 18.859 25.8605L20.223 25.1903C20.7687 24.9222 21.0415 24.386 21.0415 23.8498V22.1072C20.9051 20.7667 21.9963 19.4262 23.3604 19.2922L25.27 19.0241C25.8157 18.89 26.2249 18.4879 26.3613 17.9517L26.7705 16.4772C26.9069 15.941 26.6341 15.4048 26.2249 15.0026L24.588 13.9303C23.3604 13.126 22.9511 11.6514 23.7696 10.311L24.7244 8.70239C24.9972 8.1662 24.9972 7.63001 24.588 7.22787L23.6332 6.02144C23.224 5.61929 22.6783 5.3512 22.1327 5.61929L20.223 6.15548C18.859 6.55763 17.3585 5.88739 16.9493 4.54691L16.2673 2.80429C15.9945 2.2681 15.5853 2 15.0396 2H13.5392C12.8571 2 12.3115 2.2681 12.1751 2.80429L11.3567 4.54691C10.8111 5.88739 9.447 6.55763 7.94654 6.15548L6.17327 5.48524C5.62765 5.3512 5.08203 5.61929 4.67281 6.02144L3.71797 7.22787C3.30875 7.63001 3.30875 8.30025 3.58157 8.70239L4.5364 10.311C5.21843 11.5174 4.94562 13.126 3.71797 13.9303L2.08111 15.0026C1.67189 15.2707 1.39908 15.8069 1.53548 16.4772L1.9447 17.9517C2.08111 18.4879 2.62673 18.89 3.17235 18.89Z" stroke="#2FBEA9" stroke-width="3" stroke-linecap="round" stroke-linejoin="round"/>
<path d="M16.8129 11.5174C18.3133 12.9919 18.3133 15.2707 16.8129 16.6112C15.3124 18.0857 12.9935 18.0857 11.6295 16.6112C10.129 15.1367 10.129 12.8579 11.4931 11.5174C12.9935 10.0429 15.3124 10.0429 16.8129 11.5174Z" stroke="#2FBEA9" stroke-width="3" stroke-linecap="round" stroke-linejoin="round"/>
</svg>
