<svg width="20" height="20" viewBox="0 0 20 20" fill="none" xmlns="http://www.w3.org/2000/svg">
<path d="M19.9812 6.72375L18.85 2.19625C18.7113 1.64 18.2113 1.25 17.6375 1.25H2.36375C1.79 1.25 1.29 1.64 1.15 2.19625L0.01875 6.72375C0.00625 6.7725 0 6.82375 0 6.875C0 8.5975 1.33125 10 2.96875 10C3.92 10 4.76875 9.52625 5.3125 8.79125C5.85625 9.52625 6.705 10 7.65625 10C8.6075 10 9.45625 9.52625 10 8.79125C10.5437 9.52625 11.3912 10 12.3438 10C13.2963 10 14.1438 9.52625 14.6875 8.79125C15.2312 9.52625 16.0788 10 17.0312 10C18.6688 10 20 8.5975 20 6.875C20 6.82375 19.9937 6.7725 19.9812 6.72375Z" fill="#A6CE3A"/>
<path d="M17.0312 11.25C16.18 11.25 15.3713 10.99 14.6875 10.515C13.32 11.4663 11.3675 11.4663 10 10.515C8.6325 11.4663 6.68 11.4663 5.3125 10.515C4.62875 10.99 3.82 11.25 2.96875 11.25C2.355 11.25 1.77625 11.1063 1.25 10.8613V17.5C1.25 18.19 1.81 18.75 2.5 18.75H7.5V13.75H12.5V18.75H17.5C18.19 18.75 18.75 18.19 18.75 17.5V10.8613C18.2237 11.1063 17.645 11.25 17.0312 11.25Z" fill="#A6CE3A"/>
</svg>
