<svg width="24" height="24" viewBox="0 0 24 24" fill="none" xmlns="http://www.w3.org/2000/svg">
<path id="icons8-sun" fill-rule="evenodd" clip-rule="evenodd" d="M11.9863 9.35351e-05C11.5153 0.0103682 11.1369 0.398237 11.1437 0.870015V3.43868C11.1403 3.74607 11.3013 4.03376 11.5684 4.1913C11.8364 4.34542 12.1636 4.34542 12.4316 4.1913C12.6987 4.03376 12.8597 3.74607 12.8563 3.43868V0.870015C12.8597 0.638835 12.7689 0.415361 12.6054 0.250967C12.4418 0.0874282 12.2175 -0.00333135 11.9863 9.35351e-05ZM4.11959 3.26487C3.77194 3.26829 3.45683 3.47892 3.32667 3.80001C3.19652 4.12452 3.27358 4.49183 3.52448 4.73671L5.34066 6.55276C5.55473 6.77624 5.87584 6.867 6.17297 6.78651C6.47438 6.70945 6.70815 6.4757 6.78521 6.17431C6.86571 5.8772 6.77494 5.55612 6.55145 5.34206L4.73526 3.52602C4.57428 3.3582 4.34994 3.26487 4.11959 3.26487ZM19.8539 3.26487C19.6295 3.27172 19.4189 3.36505 19.2647 3.52602L17.4486 5.34206C17.2251 5.55612 17.1343 5.8772 17.2148 6.17431C17.2918 6.4757 17.5256 6.70945 17.827 6.78651C18.1242 6.867 18.4453 6.77624 18.6593 6.55276L20.4755 4.73671C20.7298 4.48927 20.8035 4.11424 20.6665 3.78973C20.5295 3.4618 20.2084 3.25459 19.8539 3.26487ZM12 6.00735C8.68874 6.00735 6.00599 8.68989 6.00599 12.0009C6.00599 15.3119 8.68874 17.9945 12 17.9945C15.3113 17.9945 17.994 15.3119 17.994 12.0009C17.994 8.68989 15.3113 6.00735 12 6.00735ZM0.868275 11.1447C0.560868 11.1413 0.273155 11.3022 0.115599 11.5694C-0.0385329 11.8374 -0.0385329 12.1644 0.115599 12.4324C0.273155 12.6996 0.560868 12.8605 0.868275 12.8571H3.43713C3.74454 12.8605 4.03225 12.6996 4.18981 12.4324C4.34394 12.1644 4.34394 11.8374 4.18981 11.5694C4.03225 11.3022 3.74454 11.1413 3.43713 11.1447H0.868275ZM20.5629 11.1447C20.2555 11.1413 19.9677 11.3022 19.8102 11.5694C19.6561 11.8374 19.6561 12.1644 19.8102 12.4324C19.9677 12.6996 20.2555 12.8605 20.5629 12.8571H23.1317C23.4391 12.8605 23.7268 12.6996 23.8844 12.4324C24.0385 12.1644 24.0385 11.8374 23.8844 11.5694C23.7268 11.3022 23.4391 11.1413 23.1317 11.1447H20.5629ZM5.92893 17.1913C5.70458 17.1947 5.49393 17.2889 5.34066 17.449L3.52448 19.2651C3.30013 19.4791 3.20936 19.8002 3.28985 20.0982C3.36692 20.3996 3.60069 20.6333 3.9021 20.7104C4.20009 20.7909 4.52119 20.7001 4.73526 20.4758L6.55145 18.6597C6.80577 18.4123 6.87941 18.0381 6.74154 17.7136C6.60454 17.3857 6.28343 17.1785 5.92893 17.1913ZM18.0471 17.1913C17.696 17.1913 17.3852 17.4028 17.2516 17.7239C17.1206 18.0475 17.1977 18.4157 17.4486 18.6597L19.2647 20.4758C19.4788 20.7001 19.7999 20.7909 20.0979 20.7104C20.3993 20.6333 20.6331 20.3996 20.7101 20.0982C20.7906 19.8002 20.6999 19.4791 20.4755 19.2651L18.6593 17.449C18.4992 17.2821 18.2783 17.1913 18.0471 17.1913ZM11.9863 19.6932C11.5153 19.7035 11.1369 20.0913 11.1437 20.5631V23.1318C11.1403 23.4392 11.3013 23.7269 11.5684 23.8844C11.8364 24.0385 12.1636 24.0385 12.4316 23.8844C12.6987 23.7269 12.8597 23.4392 12.8563 23.1318V20.5631C12.8597 20.3319 12.7689 20.1085 12.6054 19.9441C12.4418 19.7805 12.2175 19.6898 11.9863 19.6932Z" fill="#31BEA9"/>
</svg>
