<svg width="14" height="20" viewBox="0 0 14 20" fill="none" xmlns="http://www.w3.org/2000/svg">
<path id="icons8-temperature" fill-rule="evenodd" clip-rule="evenodd" d="M4.168 0C3.258 0 2.5 0.754 2.5 1.668V8.27C1.023 9.492 0 11.27 0 13.332C0 17.004 2.996 20 6.668 20C10.34 20 13.336 17.004 13.336 13.332C13.336 11.27 12.313 9.492 10.836 8.27V7.5H11.668C11.969 7.504 12.246 7.348 12.398 7.086C12.551 6.828 12.551 6.508 12.398 6.246C12.246 5.988 11.969 5.828 11.668 5.832H10.836V4.168H11.668C11.969 4.172 12.246 4.012 12.398 3.754C12.551 3.492 12.551 3.172 12.398 2.914C12.246 2.652 11.969 2.496 11.668 2.5H10.836V1.668C10.836 0.754 10.078 0 9.168 0H4.168ZM4.168 1.66803H9.168V3.19103C9.152 3.28503 9.152 3.37503 9.168 3.46503V6.52703C9.152 6.61703 9.152 6.70703 9.168 6.79703V8.98403L9.523 9.23403C10.82 10.137 11.668 11.629 11.668 13.332C11.668 16.105 9.438 18.332 6.668 18.332C3.898 18.332 1.668 16.105 1.668 13.332C1.668 11.629 2.516 10.137 3.813 9.23403L4.168 8.98403V1.66803ZM5.836 4.16803V10.109C4.363 10.488 3.336 11.816 3.336 13.332C3.336 15.176 4.828 16.668 6.668 16.668C8.508 16.668 10 15.176 10 13.332C10 11.816 8.973 10.488 7.5 10.109V4.16803H5.836Z" fill="white"/>
</svg>
