<svg width="30" height="30" viewBox="0 0 30 30" fill="none" xmlns="http://www.w3.org/2000/svg">
<path d="M4.28503 5.84912C5.06716 5.067 5.84928 4.28488 6.78782 3.65918" stroke="#31BEA9" stroke-width="2" stroke-linecap="round" stroke-linejoin="round"/>
<path d="M22.7429 26.6536C20.5529 28.2179 17.8937 29 14.9216 29C13.5138 29 12.106 28.8436 10.8546 28.3743" stroke="#31BEA9" stroke-width="2" stroke-linecap="round" stroke-linejoin="round"/>
<path d="M6.16199 26.0279C4.12847 24.4637 2.56423 22.2737 1.7821 19.7709" stroke="#31BEA9" stroke-width="2" stroke-linecap="round" stroke-linejoin="round"/>
<path d="M1.78212 10.3854C1.31285 11.7933 1 13.3575 1 15.0782" stroke="#31BEA9" stroke-width="2" stroke-linecap="round" stroke-linejoin="round"/>
<path d="M26.6536 22.8994C28.2178 20.7095 28.9999 18.0503 28.9999 15.0782C28.9999 7.25697 22.743 1 14.9218 1" stroke="#31BEA9" stroke-width="2" stroke-linecap="round" stroke-linejoin="round"/>
<path d="M17.7373 8.35195C19.3015 9.9162 19.3015 12.419 17.7373 13.8268C16.173 15.3911 13.6702 15.3911 12.2624 13.8268C10.6982 12.2626 10.6982 9.9162 12.2624 8.35195C13.8267 6.78771 16.173 6.78771 17.7373 8.35195Z" stroke="#31BEA9" stroke-width="2" stroke-linecap="round" stroke-linejoin="round"/>
<path d="M21.9608 21.3352C21.8044 20.8659 21.4916 20.3966 21.0223 19.9273C20.3966 19.3016 19.458 18.9888 18.5195 18.9888H11.4804C10.5419 18.9888 9.60331 19.3016 8.97761 19.9273C8.50834 20.2402 8.19549 20.7095 8.03906 21.3352" stroke="#31BEA9" stroke-width="2" stroke-linecap="round" stroke-linejoin="round"/>
</svg>
