<svg width="26" height="22" viewBox="0 0 26 22" fill="none" xmlns="http://www.w3.org/2000/svg">
<path d="M1 4.40983C2.16831 2.89538 3.73369 1.74329 5.39835 1.26015C9.57525 0.0430172 12.1791 4.35409 15.8444 5.71988C19.609 7.12283 22.8925 4.81864 25 1" stroke="white" stroke-width="2" stroke-miterlimit="10" stroke-linecap="round"/>
<path d="M1 11.8427C2.16831 10.3282 3.73369 9.17615 5.39835 8.69301C9.57525 7.47588 12.1791 11.7869 15.8444 13.1527C19.609 14.5557 22.8925 12.2515 25 8.43286" stroke="white" stroke-width="2" stroke-miterlimit="10" stroke-linecap="round"/>
<path d="M1 19.2755C2.16831 17.7611 3.74133 16.609 5.39835 16.1259C9.57525 14.9087 12.1791 19.2198 15.8444 20.5856C19.609 21.9885 22.8925 19.6844 25 15.8657" stroke="white" stroke-width="2" stroke-miterlimit="10" stroke-linecap="round"/>
</svg>
