<svg width="21" height="24" viewBox="0 0 21 24" fill="none" xmlns="http://www.w3.org/2000/svg">
<path id="icons8-winter" fill-rule="evenodd" clip-rule="evenodd" d="M10.4853 0.000100722C9.97987 0.0111648 9.5737 0.428835 9.58105 0.936862V3.32118L8.39284 2.12902C8.221 1.94923 7.98391 1.8515 7.73212 1.8515C7.35902 1.8515 7.02544 2.07831 6.88117 2.42406C6.74149 2.7735 6.82419 3.16997 7.09345 3.43274L9.58105 5.92862V7.48128C8.58674 7.68597 7.72477 8.22258 7.07507 8.95373L5.71869 8.1691L4.80709 4.7549C4.70601 4.35475 4.35129 4.06985 3.93776 4.0634C3.64738 4.05602 3.37077 4.18879 3.19158 4.41929C3.01238 4.64979 2.95449 4.95221 3.03352 5.23342L3.46818 6.86538L1.41065 5.66954C1.27832 5.59024 1.12761 5.54691 0.973225 5.53953C0.941062 5.53953 0.911656 5.53953 0.879492 5.53953C0.474234 5.56811 0.133303 5.8567 0.0432459 6.25686C-0.0468113 6.65609 0.133303 7.06638 0.491694 7.2683L2.54923 8.45677L0.926359 8.89657C0.602888 8.97586 0.348338 9.22388 0.258281 9.54843C0.172818 9.86929 0.261957 10.2141 0.499046 10.4483C0.736136 10.6825 1.08074 10.7692 1.40421 10.6751L4.79974 9.76418L6.15979 10.5497C6.00908 11.0107 5.90524 11.4893 5.90524 12.001C5.90524 12.5127 6.00908 12.9912 6.15979 13.4522L4.79974 14.2378L1.40421 13.3268C1.31416 13.301 1.22042 13.2872 1.13129 13.2899C0.671809 13.301 0.291363 13.6504 0.240821 14.1078C0.190278 14.5651 0.481586 14.9901 0.926359 15.1054L2.54923 15.5452L0.491694 16.7373C0.190278 16.8922 0.00373101 17.202 5.52072e-05 17.5404C-0.0036206 17.8788 0.176494 18.1923 0.470559 18.3582C0.764623 18.5196 1.12393 18.5122 1.41065 18.3287L3.46818 17.1403L3.03352 18.7685C2.93978 19.0894 3.02984 19.4342 3.26325 19.6721C3.49667 19.91 3.8376 20.004 4.16107 19.9137C4.47995 19.827 4.72806 19.5716 4.80709 19.247L5.71869 15.8328L7.07507 15.0482C7.72477 15.7794 8.58674 16.316 9.58105 16.5207V18.0733L7.09345 20.5692C6.85268 20.7997 6.75619 21.1455 6.84257 21.4663C6.92436 21.7899 7.17615 22.0426 7.4987 22.1246C7.8185 22.2113 8.16311 22.1145 8.39284 21.8729L9.58105 20.6808V23.0651C9.57737 23.3961 9.75014 23.7059 10.0368 23.8755C10.3245 24.0415 10.6755 24.0415 10.9632 23.8755C11.2499 23.7059 11.4226 23.3961 11.419 23.0651V20.6808L12.6072 21.8729C12.8369 22.1145 13.1815 22.2113 13.5013 22.1246C13.8238 22.0426 14.0756 21.7899 14.1574 21.4663C14.2438 21.1455 14.1473 20.7997 13.9066 20.5692L11.419 18.0733V16.5207C12.4133 16.316 13.2752 15.7794 13.9249 15.0482L15.2813 15.8328L16.1892 19.247C16.2719 19.5716 16.5201 19.827 16.8389 19.9137C17.1624 20.004 17.5033 19.91 17.7367 19.6721C17.9702 19.4342 18.0602 19.0894 17.9665 18.7685L17.5318 17.1403L19.5894 18.3287C19.8761 18.5122 20.2354 18.5196 20.5294 18.3582C20.8235 18.1923 21.0036 17.8788 20.9999 17.5404C20.9963 17.202 20.8097 16.8922 20.5083 16.7373L18.4508 15.5452L20.0736 15.1054C20.5221 14.9901 20.8171 14.5577 20.7555 14.0967C20.6985 13.6357 20.3071 13.2899 19.8439 13.2899C19.7612 13.2899 19.6785 13.301 19.5995 13.3268L16.2003 14.2378L14.8402 13.4522C14.9909 12.9912 15.0948 12.5127 15.0948 12.001C15.0948 11.4893 14.9909 11.0107 14.8402 10.5497L16.2003 9.76418L19.5995 10.6751C19.9193 10.7692 20.2639 10.6825 20.501 10.4483C20.738 10.2141 20.8272 9.86929 20.7417 9.54843C20.6517 9.22388 20.3971 8.97586 20.0736 8.89657L18.4508 8.45677L20.5083 7.2683C20.8704 7.06361 21.0496 6.64502 20.9531 6.24579C20.8529 5.84195 20.501 5.55428 20.092 5.53953C19.9156 5.53584 19.7401 5.57918 19.5894 5.66954L17.5318 6.86538L17.9665 5.23342C18.0418 4.96328 17.9913 4.67192 17.8305 4.44511C17.6651 4.2146 17.4068 4.07354 17.1266 4.0634C17.0981 4.05971 17.0659 4.05971 17.0328 4.0634C16.6312 4.08091 16.2903 4.36581 16.1892 4.7549L15.2813 8.1691L13.9249 8.95373C13.2752 8.22258 12.4133 7.68597 11.419 7.48128V5.92862L13.9066 3.43274C14.1795 3.16997 14.2622 2.76244 14.1188 2.41392C13.9709 2.06448 13.6263 1.83766 13.2458 1.84412C13.006 1.8515 12.7762 1.95292 12.6072 2.12902L11.419 3.32118V0.936862C11.4226 0.68792 11.3252 0.447275 11.1497 0.270249C10.9742 0.0941457 10.7334 -0.00358731 10.4853 0.000100722ZM10.4173 9.24601C10.4715 9.2497 10.5285 9.2497 10.5864 9.24601C11.4906 9.2709 12.2874 9.7356 12.7689 10.4345C12.8084 10.5672 12.8764 10.6862 12.9665 10.7876C13.1457 11.1546 13.2569 11.5649 13.2569 12.001C13.2569 12.4979 13.1172 12.9553 12.8874 13.3554C12.8727 13.3803 12.858 13.4089 12.8479 13.4347C12.3774 14.2092 11.5448 14.7274 10.5827 14.7559C10.5505 14.7559 10.5184 14.7522 10.4853 14.7522C10.4605 14.7559 10.4393 14.7559 10.4136 14.7559C8.93135 14.7126 7.74314 13.4992 7.74314 12.001C7.74314 11.5649 7.85066 11.1583 8.02986 10.7913C8.11991 10.6899 8.18792 10.5672 8.22743 10.4345C8.70896 9.73191 9.50937 9.2709 10.4173 9.24601ZM10.5 11.079C9.99366 11.079 9.58105 11.4929 9.58105 12.001C9.58105 12.509 9.99366 12.923 10.5 12.923C11.0063 12.923 11.419 12.509 11.419 12.001C11.419 11.4929 11.0063 11.079 10.5 11.079Z" fill="#31BEA9"/>
</svg>
