<svg width="32" height="32" viewBox="0 0 32 32" fill="none" xmlns="http://www.w3.org/2000/svg">
<path d="M28.4444 16.7778V25.3333C28.4444 27.9777 26.4222 30 23.7778 30H6.66667C4.02222 30 2 27.9777 2 25.3333V8.22221C2 5.57776 4.02222 3.55554 6.66667 3.55554H15.2222" stroke="#31BEA9" stroke-width="3" stroke-linecap="round" stroke-linejoin="round"/>
<path d="M28.4444 16.7778H2" stroke="#31BEA9" stroke-width="3" stroke-linecap="round" stroke-linejoin="round"/>
<path d="M15.2222 3.55554V30" stroke="#31BEA9" stroke-width="3" stroke-linecap="round" stroke-linejoin="round"/>
<path d="M30 6.66667C27.2 6.66667 25.3333 4.8 25.3333 2" stroke="#31BEA9" stroke-width="3" stroke-miterlimit="10" stroke-linecap="round" stroke-linejoin="round"/>
<path d="M20.6667 2C20.6667 3.24445 20.8223 4.33332 21.2889 5.26665C22.2223 7.9111 24.0889 9.77777 26.7334 10.7111C27.6667 11.0222 28.9111 11.3333 30 11.3333" stroke="#31BEA9" stroke-width="3" stroke-miterlimit="10" stroke-linecap="round" stroke-linejoin="round"/>
</svg>
